<?xml version="1.0" encoding="UTF-8"?>
<svg version="1.1" xmlns="http://www.w3.org/2000/svg" width="1024" height="1024">
<path d="M0 0 C18.80052673 5.03585537 36.32553836 18.65087613 51 31 C51.51208008 31.4232959 52.02416016 31.8465918 52.55175781 32.28271484 C83.6970103 58.04337995 83.6970103 58.04337995 90 72 C90.79277344 71.70867187 91.58554687 71.41734375 92.40234375 71.1171875 C100.72580904 68.19247815 109.10872487 65.87426925 117.6875 63.8125 C118.71931396 63.56290527 119.75112793 63.31331055 120.81420898 63.05615234 C137.82711503 59.04659499 154.1794155 57.83127031 171.59716797 57.86962891 C174.49321732 57.87498745 177.38911162 57.86965912 180.28515625 57.86328125 C193.74112252 57.85618571 206.35112443 58.66331876 219.5625 61.375 C220.62146484 61.58382812 221.68042969 61.79265625 222.77148438 62.0078125 C228.61587302 63.18893356 234.28657434 64.58670944 239.95678711 66.43603516 C242.1287075 67.13303462 242.1287075 67.13303462 245 67 C246.82356301 65.08415833 246.82356301 65.08415833 248.6875 62.5 C258.04808893 50.68092034 269.08825936 40.21219602 281 31 C282.08758108 30.12443349 283.17342743 29.24670915 284.2578125 28.3671875 C295.59470316 19.22065151 307.33005568 11.24397849 320.1875 4.375 C321.408927 3.71745728 321.408927 3.71745728 322.6550293 3.04663086 C323.80612183 2.44733765 323.80612183 2.44733765 324.98046875 1.8359375 C325.99983521 1.30299072 325.99983521 1.30299072 327.03979492 0.75927734 C329 0 329 0 333 0 C337.63531715 10.7998111 341.12389588 21.61172574 344 33 C344.24782227 33.95277832 344.49564453 34.90555664 344.75097656 35.88720703 C353.26144231 68.8692165 364.03025755 127.37233828 346 159 C341.3652348 166.61791517 335.41560152 171.90220315 326.7890625 174.49609375 C314.13897019 176.78161463 303.90373253 175.04811294 293.390625 167.7890625 C290.82071575 165.86582976 288.38635192 163.82492543 285.9375 161.75 C275.01227454 152.69636609 262.62768859 145.94914824 249.85351562 139.88623047 C248.12673771 139.06059772 246.41425519 138.20524875 244.703125 137.34765625 C213.5838455 122.13636664 172.51658104 118.05134294 139 126 C138.23042969 126.17692383 137.46085938 126.35384766 136.66796875 126.53613281 C91.69855663 137.05200099 50.25186554 163.84482993 25.52075195 203.42919922 C15.22759035 220.34832315 6.49464184 238.64681381 2 258 C1.81663086 258.78246094 1.63326172 259.56492187 1.44433594 260.37109375 C-3.42586362 282.02741259 -3.98802216 305.13385579 0 327 C0.19335938 328.145896 0.19335938 328.145896 0.390625 329.31494141 C6.01533207 362.4577466 21.11880349 393.30043026 44 418 C44.77633789 418.84208008 44.77633789 418.84208008 45.56835938 419.70117188 C70.7644119 446.70339304 104.57842705 465.52154234 141 472 C142.20740845 472.25160889 142.20740845 472.25160889 143.43920898 472.50830078 C152.72469076 474.30084009 161.89129753 474.39794632 171.3125 474.375 C172.15182068 474.37445618 172.99114136 474.37391235 173.855896 474.37335205 C187.5685148 474.33257273 200.66496586 473.42169321 214 470 C214.86173828 469.78037598 215.72347656 469.56075195 216.61132812 469.33447266 C246.81610096 461.38969529 275.64918275 446.86686403 297.0625 423.6875 C303.9289033 416.57220788 313.30066254 412.9660027 323.04101562 412.65649414 C337.11327125 412.46660701 347.89539202 416.03089355 359 425 C359.69609375 425.53367187 360.3921875 426.06734375 361.109375 426.6171875 C369.87914338 433.72137971 375.21603428 443.05976533 380.4375 452.875 C380.87497559 453.69581055 381.31245117 454.51662109 381.76318359 455.36230469 C382.17004395 456.14766602 382.5769043 456.93302734 382.99609375 457.7421875 C383.35888428 458.4419873 383.7216748 459.14178711 384.09545898 459.86279297 C385.09390003 462.22186259 385.57710486 464.47915929 386 467 C383.47542578 465.99107518 380.95156495 464.98049348 378.4296875 463.96484375 C377.58664062 463.62582031 376.74359375 463.28679687 375.875 462.9375 C375.02679687 462.59589844 374.17859375 462.25429688 373.3046875 461.90234375 C369.64350451 460.46889753 366.73311417 459.81635736 362.8125 459.75 C361.91144531 459.72421875 361.01039063 459.6984375 360.08203125 459.671875 C350.82773407 460.65712337 346.32576735 465.08249079 340.1875 471.625 C338.59466766 473.26774508 336.99833685 474.90710558 335.3984375 476.54296875 C334.63756836 477.3220459 333.87669922 478.10112305 333.09277344 478.90380859 C329.0148237 482.98841854 324.61633266 486.53611351 320 490 C319.44812012 490.42297363 318.89624023 490.84594727 318.32763672 491.28173828 C298.83899829 506.20347039 277.71981726 516.87524674 255 526 C253.84242188 526.474375 252.68484375 526.94875 251.4921875 527.4375 C234.52178572 533.9803055 215.97796105 536.75566455 198 539 C197.27651367 539.09643799 196.55302734 539.19287598 195.80761719 539.29223633 C188.28062405 540.1850134 180.73939394 540.18610961 173.17089844 540.18530273 C170.90019589 540.18747589 168.62999126 540.20565475 166.359375 540.22460938 C102.51729876 540.47937456 44.15519581 510.17288635 -0.6875 466.5 C-5.49444327 461.62389207 -9.76527619 456.37401499 -14 451 C-14.79277344 450.01257813 -15.58554687 449.02515625 -16.40234375 448.0078125 C-34.71352176 424.80786817 -47.88255272 399.08014243 -57 371 C-57.26248535 370.22253418 -57.5249707 369.44506836 -57.79541016 368.64404297 C-62.03987641 356.05374827 -64.16694628 343.13505118 -66 330 C-66.12004395 329.14003418 -66.24008789 328.28006836 -66.36376953 327.39404297 C-69.10595235 306.80110824 -69.20015524 285.54202538 -66 265 C-65.85997559 264.09056641 -65.71995117 263.18113281 -65.57568359 262.24414062 C-59.66859281 225.61159007 -44.9380816 180.9380816 -18 154 C-17.43104429 147.68856109 -18.24779875 141.62970411 -19.46484375 135.4453125 C-21.09600843 124.9439457 -21.24126883 114.35644239 -21.25 103.75 C-21.25067474 103.00500244 -21.25134949 102.26000488 -21.25204468 101.49243164 C-21.23297555 88.13477234 -20.24569969 75.18280494 -18 62 C-17.74259033 60.43161377 -17.74259033 60.43161377 -17.47998047 58.83154297 C-9.19337616 9.19337616 -9.19337616 9.19337616 0 0 Z " fill="#452E72" transform="translate(353,242)"/>
<path d="M0 0 C2.50298434 2.93828597 3.46930939 5.17902761 4 9 C1.08482708 7.92598892 -0.77810176 7.22189824 -3 5 C-2.34 5 -1.68 5 -1 5 C-0.67 3.35 -0.34 1.7 0 0 Z " fill="#5A497F" transform="translate(735,700)"/>
</svg>